{
    "asset" : {
        "generator" : "Khronos glTF Blender I/O v1.6.16",
        "version" : "2.0"
    },
    "scene" : 0,
    "scenes" : [
        {
            "name" : "Scene",
            "nodes" : [
                0
            ]
        }
    ],
    "nodes" : [
        {
            "mesh" : 0,
            "name" : "Plane",
            "scale" : [
                1,
                1,
                -0.8170876502990723
            ],
            "translation" : [
                -4.471432685852051,
                9.569463729858398,
                -1.0327502489089966
            ]
        }
    ],
    "materials" : [
        {
            "doubleSided" : true,
            "name" : "Material",
            "normalTexture" : {
                "index" : 0
            },
            "pbrMetallicRoughness" : {
                "baseColorTexture" : {
                    "index" : 1
                },
                "metallicFactor" : 0,
                "roughnessFactor" : 0.6631205677986145
            }
        },
        {
            "doubleSided" : true,
            "name" : "Material.001",
            "pbrMetallicRoughness" : {
                "baseColorFactor" : [
                    0.5173337459564209,
                    0.5173337459564209,
                    0.5173337459564209,
                    1
                ],
                "metallicFactor" : 0,
                "roughnessFactor" : 0.5
            }
        },
        {
            "doubleSided" : true,
            "name" : "Material.002",
            "pbrMetallicRoughness" : {
                "baseColorFactor" : [
                    0.012983035296201706,
                    0.012983035296201706,
                    0.012286489829421043,
                    1
                ],
                "metallicFactor" : 0,
                "roughnessFactor" : 0.5
            }
        }
    ],
    "meshes" : [
        {
            "name" : "Plane",
            "primitives" : [
                {
                    "attributes" : {
                        "POSITION" : 0,
                        "NORMAL" : 1,
                        "TEXCOORD_0" : 2
                    },
                    "indices" : 3,
                    "material" : 0
                },
                {
                    "attributes" : {
                        "POSITION" : 4,
                        "NORMAL" : 5,
                        "TEXCOORD_0" : 6
                    },
                    "indices" : 7,
                    "material" : 1
                },
                {
                    "attributes" : {
                        "POSITION" : 8,
                        "NORMAL" : 9,
                        "TEXCOORD_0" : 10
                    },
                    "indices" : 11,
                    "material" : 2
                }
            ]
        }
    ],
    "textures" : [
        {
            "sampler" : 0,
            "source" : 0
        },
        {
            "sampler" : 0,
            "source" : 1
        }
    ],
    "images" : [
        {
            "bufferView" : 4,
            "mimeType" : "image/png",
            "name" : "Image"
        },
        {
            "bufferView" : 5,
            "mimeType" : "image/png",
            "name" : "Image"
        }
    ],
    "accessors" : [
        {
            "bufferView" : 0,
            "componentType" : 5126,
            "count" : 8259,
            "max" : [
                10.454055786132812,
                -1.1089403629302979,
                1.2763663530349731
            ],
            "min" : [
                -4.308505058288574,
                -9.880882263183594,
                -3.8042478561401367
            ],
            "type" : "VEC3"
        },
        {
            "bufferView" : 1,
            "componentType" : 5126,
            "count" : 8259,
            "type" : "VEC3"
        },
        {
            "bufferView" : 2,
            "componentType" : 5126,
            "count" : 8259,
            "type" : "VEC2"
        },
        {
            "bufferView" : 3,
            "componentType" : 5123,
            "count" : 12639,
            "type" : "SCALAR"
        },
        {
            "bufferView" : 6,
            "componentType" : 5126,
            "count" : 797,
            "max" : [
                10.56541633605957,
                -0.8382329940795898,
                1.7645736932754517
            ],
            "min" : [
                -1.482530117034912,
                -9.880882263183594,
                -4.292455196380615
            ],
            "type" : "VEC3"
        },
        {
            "bufferView" : 7,
            "componentType" : 5126,
            "count" : 797,
            "type" : "VEC3"
        },
        {
            "bufferView" : 8,
            "componentType" : 5126,
            "count" : 797,
            "type" : "VEC2"
        },
        {
            "bufferView" : 9,
            "componentType" : 5123,
            "count" : 1191,
            "type" : "SCALAR"
        },
        {
            "bufferView" : 10,
            "componentType" : 5126,
            "count" : 76,
            "max" : [
                6.838926792144775,
                -3.7169601917266846,
                -0.761118471622467
            ],
            "min" : [
                6.041901588439941,
                -4.1221747398376465,
                -1.7667629718780518
            ],
            "type" : "VEC3"
        },
        {
            "bufferView" : 11,
            "componentType" : 5126,
            "count" : 76,
            "type" : "VEC3"
        },
        {
            "bufferView" : 12,
            "componentType" : 5126,
            "count" : 76,
            "type" : "VEC2"
        },
        {
            "bufferView" : 13,
            "componentType" : 5123,
            "count" : 114,
            "type" : "SCALAR"
        }
    ],
    "bufferViews" : [
        {
            "buffer" : 0,
            "byteLength" : 99108,
            "byteOffset" : 0
        },
        {
            "buffer" : 0,
            "byteLength" : 99108,
            "byteOffset" : 99108
        },
        {
            "buffer" : 0,
            "byteLength" : 66072,
            "byteOffset" : 198216
        },
        {
            "buffer" : 0,
            "byteLength" : 25278,
            "byteOffset" : 264288
        },
        {
            "buffer" : 0,
            "byteLength" : 534141,
            "byteOffset" : 289568
        },
        {
            "buffer" : 0,
            "byteLength" : 537501,
            "byteOffset" : 823712
        },
        {
            "buffer" : 0,
            "byteLength" : 9564,
            "byteOffset" : 1361216
        },
        {
            "buffer" : 0,
            "byteLength" : 9564,
            "byteOffset" : 1370780
        },
        {
            "buffer" : 0,
            "byteLength" : 6376,
            "byteOffset" : 1380344
        },
        {
            "buffer" : 0,
            "byteLength" : 2382,
            "byteOffset" : 1386720
        },
        {
            "buffer" : 0,
            "byteLength" : 912,
            "byteOffset" : 1389104
        },
        {
            "buffer" : 0,
            "byteLength" : 912,
            "byteOffset" : 1390016
        },
        {
            "buffer" : 0,
            "byteLength" : 608,
            "byteOffset" : 1390928
        },
        {
            "buffer" : 0,
            "byteLength" : 228,
            "byteOffset" : 1391536
        }
    ],
    "samplers" : [
        {
            "magFilter" : 9729,
            "minFilter" : 9987
        }
    ],
    "buffers" : [
        {
            "byteLength" : 1391764,
            "uri" : "data:application/octet-stream;base64,"
        }
    ]
}
